<svg width="512" height="512" viewBox="0 0 512 512" fill="none" xmlns="http://www.w3.org/2000/svg">
  <!-- Background circle -->
  <circle cx="256" cy="256" r="240" fill="#2563eb" stroke="#1d4ed8" stroke-width="8"/>
  
  <!-- Car body -->
  <rect x="140" y="200" width="232" height="80" rx="20" fill="#ffffff"/>
  
  <!-- Car windows -->
  <rect x="160" y="180" width="60" height="40" rx="8" fill="#e5e7eb"/>
  <rect x="240" y="180" width="60" height="40" rx="8" fill="#e5e7eb"/>
  <rect x="320" y="180" width="32" height="40" rx="8" fill="#e5e7eb"/>
  
  <!-- Car wheels -->
  <circle cx="180" cy="300" r="24" fill="#374151"/>
  <circle cx="180" cy="300" r="12" fill="#6b7280"/>
  <circle cx="332" cy="300" r="24" fill="#374151"/>
  <circle cx="332" cy="300" r="12" fill="#6b7280"/>
  
  <!-- Route lines -->
  <path d="M80 350 Q150 320 220 350 T380 350" stroke="#fbbf24" stroke-width="6" fill="none" stroke-linecap="round"/>
  <path d="M100 380 Q170 350 240 380 T400 380" stroke="#f59e0b" stroke-width="4" fill="none" stroke-linecap="round"/>
  
  <!-- Location pins -->
  <circle cx="120" cy="360" r="8" fill="#ef4444"/>
  <circle cx="360" cy="360" r="8" fill="#22c55e"/>
  
  <!-- App name -->
  <text x="256" y="420" font-family="Arial, sans-serif" font-size="36" font-weight="bold" text-anchor="middle" fill="#ffffff">UBRAN</text>
</svg>